<mxfile host="app.diagrams.net" modified="2024-02-16T13:54:59.821Z" agent="Mozilla/5.0 (Macintosh; Intel Mac OS X 10_15_7) AppleWebKit/537.36 (KHTML, like Gecko) Chrome/121.0.0.0 Safari/537.36" etag="YuWQ-KSElgaKUHCYPw9X" version="23.1.5" type="github">
  <diagram name="Overview" id="efa7a0a1-bf9b-a30e-e6df-94a7791c09e9">
    <mxGraphModel dx="6755" dy="4370" grid="1" gridSize="10" guides="1" tooltips="1" connect="1" arrows="1" fold="1" page="1" pageScale="1" pageWidth="4681" pageHeight="3300" background="none" math="0" shadow="0">
      <root>
        <mxCell id="0" />
        <mxCell id="1" parent="0" />
        <mxCell id="KOt_uTK3w-YfJjMbxWF_-25" value="" style="whiteSpace=wrap;html=1;aspect=fixed;fillColor=#ffe6cc;strokeColor=#d79b00;" parent="1" vertex="1">
          <mxGeometry x="-975" y="-1886.28" width="340" height="340" as="geometry" />
        </mxCell>
        <mxCell id="KOt_uTK3w-YfJjMbxWF_-27" value="DB Pratiche" style="shape=cylinder3;whiteSpace=wrap;html=1;boundedLbl=1;backgroundOutline=1;size=15;fillColor=#dae8fc;strokeColor=#6c8ebf;" parent="1" vertex="1">
          <mxGeometry x="-933.75" y="-1400" width="235" height="263.28" as="geometry" />
        </mxCell>
        <mxCell id="KOt_uTK3w-YfJjMbxWF_-28" value="Front End" style="rhombus;whiteSpace=wrap;html=1;fillColor=#d5e8d4;strokeColor=#82b366;" parent="1" vertex="1">
          <mxGeometry x="-946.25" y="-2600.0000000000005" width="260" height="331.64" as="geometry" />
        </mxCell>
        <mxCell id="2jq44TqlgXfwZuV3eQg2-30" value="" style="edgeStyle=orthogonalEdgeStyle;rounded=0;orthogonalLoop=1;jettySize=auto;html=1;" parent="1" source="2jq44TqlgXfwZuV3eQg2-25" target="2jq44TqlgXfwZuV3eQg2-27" edge="1">
          <mxGeometry relative="1" as="geometry" />
        </mxCell>
        <mxCell id="2jq44TqlgXfwZuV3eQg2-31" value="" style="edgeStyle=orthogonalEdgeStyle;rounded=0;orthogonalLoop=1;jettySize=auto;html=1;" parent="1" source="2jq44TqlgXfwZuV3eQg2-25" target="2jq44TqlgXfwZuV3eQg2-27" edge="1">
          <mxGeometry relative="1" as="geometry" />
        </mxCell>
        <mxCell id="2jq44TqlgXfwZuV3eQg2-25" value="Business Layer" style="rounded=1;whiteSpace=wrap;html=1;" parent="1" vertex="1">
          <mxGeometry x="-931.25" y="-1756.28" width="252.5" height="80" as="geometry" />
        </mxCell>
        <mxCell id="2jq44TqlgXfwZuV3eQg2-26" value="Data Layer" style="rounded=1;whiteSpace=wrap;html=1;" parent="1" vertex="1">
          <mxGeometry x="-933.75" y="-1651.64" width="260" height="80" as="geometry" />
        </mxCell>
        <mxCell id="2jq44TqlgXfwZuV3eQg2-27" value="Controller" style="rounded=1;whiteSpace=wrap;html=1;" parent="1" vertex="1">
          <mxGeometry x="-932.5" y="-1860" width="253.75" height="70" as="geometry" />
        </mxCell>
        <mxCell id="2jq44TqlgXfwZuV3eQg2-29" value="" style="shape=flexArrow;endArrow=classic;startArrow=classic;html=1;rounded=0;width=6;endSize=7;fillColor=#333333;" parent="1" edge="1">
          <mxGeometry width="100" height="100" relative="1" as="geometry">
            <mxPoint x="-806.12" y="-1749.18" as="sourcePoint" />
            <mxPoint x="-806.12" y="-1800" as="targetPoint" />
          </mxGeometry>
        </mxCell>
        <mxCell id="2jq44TqlgXfwZuV3eQg2-32" value="" style="shape=flexArrow;endArrow=classic;startArrow=classic;html=1;rounded=0;width=6;endSize=7;fillColor=#333333;" parent="1" edge="1">
          <mxGeometry width="100" height="100" relative="1" as="geometry">
            <mxPoint x="-806.13" y="-1641.64" as="sourcePoint" />
            <mxPoint x="-806.13" y="-1692.46" as="targetPoint" />
          </mxGeometry>
        </mxCell>
        <mxCell id="2jq44TqlgXfwZuV3eQg2-34" value="" style="shape=flexArrow;endArrow=classic;startArrow=classic;html=1;rounded=0;width=6;endSize=7;fillColor=#333333;" parent="1" edge="1">
          <mxGeometry width="100" height="100" relative="1" as="geometry">
            <mxPoint x="-870" y="-2180" as="sourcePoint" />
            <mxPoint x="-868" y="-2310" as="targetPoint" />
          </mxGeometry>
        </mxCell>
        <mxCell id="2jq44TqlgXfwZuV3eQg2-36" value="Http" style="text;html=1;align=center;verticalAlign=middle;whiteSpace=wrap;rounded=0;" parent="1" vertex="1">
          <mxGeometry x="-770" y="-1980" width="60" height="30" as="geometry" />
        </mxCell>
        <mxCell id="2jq44TqlgXfwZuV3eQg2-37" value="" style="shape=flexArrow;endArrow=classic;startArrow=classic;html=1;rounded=0;width=6;endSize=7;fillColor=#333333;" parent="1" edge="1">
          <mxGeometry width="100" height="100" relative="1" as="geometry">
            <mxPoint x="-817.25" y="-1405" as="sourcePoint" />
            <mxPoint x="-817" y="-1535" as="targetPoint" />
          </mxGeometry>
        </mxCell>
        <mxCell id="2jq44TqlgXfwZuV3eQg2-44" value="" style="shape=flexArrow;endArrow=classic;html=1;rounded=0;fillColor=#333333;strokeColor=none;entryX=0.018;entryY=0.669;entryDx=0;entryDy=0;entryPerimeter=0;" parent="1" target="2jq44TqlgXfwZuV3eQg2-47" edge="1">
          <mxGeometry width="50" height="50" relative="1" as="geometry">
            <mxPoint x="-670" y="-1600" as="sourcePoint" />
            <mxPoint x="-410" y="-1760" as="targetPoint" />
          </mxGeometry>
        </mxCell>
        <mxCell id="2jq44TqlgXfwZuV3eQg2-47" value="Notification Streaming Hub&lt;br&gt;(SignalR, now it&#39;s API)" style="ellipse;whiteSpace=wrap;html=1;fillColor=#e1d5e7;strokeColor=#9673a6;" parent="1" vertex="1">
          <mxGeometry x="-390" y="-1886.28" width="280" height="196.28" as="geometry" />
        </mxCell>
        <mxCell id="2jq44TqlgXfwZuV3eQg2-48" value="" style="shape=flexArrow;endArrow=classic;html=1;rounded=0;fillColor=#333333;strokeColor=none;" parent="1" target="KOt_uTK3w-YfJjMbxWF_-28" edge="1">
          <mxGeometry width="50" height="50" relative="1" as="geometry">
            <mxPoint x="-310" y="-1885" as="sourcePoint" />
            <mxPoint x="-50" y="-2045" as="targetPoint" />
          </mxGeometry>
        </mxCell>
        <mxCell id="2jq44TqlgXfwZuV3eQg2-49" value="Web Socket" style="text;html=1;align=center;verticalAlign=middle;whiteSpace=wrap;rounded=0;" parent="1" vertex="1">
          <mxGeometry x="-440" y="-2050" width="90" height="31.64" as="geometry" />
        </mxCell>
        <mxCell id="2jq44TqlgXfwZuV3eQg2-50" value="Identity Provider" style="ellipse;whiteSpace=wrap;html=1;fillColor=#b0e3e6;strokeColor=#0e8088;" parent="1" vertex="1">
          <mxGeometry x="-958.75" y="-2180" width="260" height="148.36" as="geometry" />
        </mxCell>
        <mxCell id="2jq44TqlgXfwZuV3eQg2-51" value="" style="shape=flexArrow;endArrow=classic;startArrow=classic;html=1;rounded=0;width=6;endSize=7;fillColor=#333333;exitX=0.603;exitY=-0.011;exitDx=0;exitDy=0;exitPerimeter=0;" parent="1" edge="1">
          <mxGeometry width="100" height="100" relative="1" as="geometry">
            <mxPoint x="-769.9999999999995" y="-1896.6499999999996" as="sourcePoint" />
            <mxPoint x="-768.02" y="-2314.9900000000002" as="targetPoint" />
          </mxGeometry>
        </mxCell>
        <mxCell id="2jq44TqlgXfwZuV3eQg2-52" value="Http" style="text;html=1;align=center;verticalAlign=middle;whiteSpace=wrap;rounded=0;" parent="1" vertex="1">
          <mxGeometry x="-946.25" y="-2260" width="60" height="30" as="geometry" />
        </mxCell>
        <mxCell id="2jq44TqlgXfwZuV3eQg2-54" value="Identity DB" style="shape=cylinder3;whiteSpace=wrap;html=1;boundedLbl=1;backgroundOutline=1;size=15;fillColor=#dae8fc;strokeColor=#6c8ebf;" parent="1" vertex="1">
          <mxGeometry x="-1420" y="-2220" width="235" height="263.28" as="geometry" />
        </mxCell>
        <mxCell id="2jq44TqlgXfwZuV3eQg2-55" value="" style="shape=flexArrow;endArrow=classic;startArrow=classic;html=1;rounded=0;width=6;endSize=7;fillColor=#333333;" parent="1" edge="1">
          <mxGeometry width="100" height="100" relative="1" as="geometry">
            <mxPoint x="-1180" y="-2100" as="sourcePoint" />
            <mxPoint x="-960" y="-2100" as="targetPoint" />
          </mxGeometry>
        </mxCell>
        <mxCell id="2jq44TqlgXfwZuV3eQg2-56" value="Monitoring DB&lt;br&gt;(Elk Logs)" style="shape=cylinder3;whiteSpace=wrap;html=1;boundedLbl=1;backgroundOutline=1;size=15;fillColor=#dae8fc;strokeColor=#6c8ebf;" parent="1" vertex="1">
          <mxGeometry x="-1560" y="-1580" width="235" height="263.28" as="geometry" />
        </mxCell>
        <mxCell id="2jq44TqlgXfwZuV3eQg2-57" value="" style="shape=flexArrow;endArrow=classic;startArrow=classic;html=1;rounded=0;width=6;endSize=7;fillColor=#333333;" parent="1" edge="1">
          <mxGeometry width="100" height="100" relative="1" as="geometry">
            <mxPoint x="-1320" y="-1460" as="sourcePoint" />
            <mxPoint x="-980" y="-1690" as="targetPoint" />
          </mxGeometry>
        </mxCell>
      </root>
    </mxGraphModel>
  </diagram>
</mxfile>
